<?xml version="1.0" encoding="UTF-8"?>
<svg id="Layer_1" data-name="Layer 1" xmlns="http://www.w3.org/2000/svg" viewBox="0 0 114.24 166.88">
  <defs>
    <style>
      .cls-1 {
        fill: #e1548d;
      }

      .cls-2 {
        fill: #1d138e;
      }

      .cls-3 {
        fill: #fbc02d;
      }
    </style>
  </defs>
  <path class="cls-2" d="M35.85,97.84c0,3.18.3,6.39-2.41,8.72-4.39,3.31-9.65-.07-10.15-4.18-.48-3.93,2.38-7.27,6.77-7.27.48-.02,5.8-.05,5.8-.05v2.77ZM77.61,67.53h-14.14v-25.91c0-1.6-.85-2.45-2.45-2.45h-22.7c-1.6,0-2.46.85-2.46,2.45l-.04,25.91c-18.65-1.01-29.23,11.5-32.78,19.09-3.96,8.5-4.59,21.43,1.41,30.76,8.39,13.05,18.79,16.05,28,16,15.96-.1,30.87-11.35,31.02-29.41v-8.62h13.8c1.36,0,2.48-1.12,2.48-2.5v-23.18c0-1.17-.96-2.13-2.13-2.13"/>
  <path class="cls-1" d="M114.11,134.33v-31.97c0-1.36-1.1-2.45-2.46-2.45h-22.7c-1.36,0-2.46,1.1-2.46,2.46,0,5.57.35,11.12.2,16.69-.15,5.83.65,18.57-7.22,19.79-11.77,1.42-13.75-16.14-13.93-16.82-.21-.77-1.73-.9-2.3-.05-3.79,5.52-7.98,10.58-14.93,12.78-1.02.33-1.42,1.05-1.06,2.41,3.74,16.82,15.42,31.16,37.2,29.61,16.81-1.2,29.66-15.59,29.66-32.44"/>
  <path class="cls-1" d="M99.75,95.42c7.85,0,14.48-6.38,14.48-14.11s-6.63-14.11-14.48-14.11-14.36,6.38-14.36,14.11,6.38,14.11,14.36,14.11"/>
  <path class="cls-3" d="M65.96,12.09h-6.13c-.63,0-1.03-.69-.71-1.24l2.76-4.78c.35-.6.14-1.37-.46-1.72L54.17.17c-.6-.35-1.37-.14-1.72.46l-2.15,3.73c-.32.55-1.11.55-1.43,0l-2.15-3.73c-.35-.6-1.12-.81-1.72-.46l-7.25,4.19c-.6.35-.81,1.12-.46,1.72l2.76,4.78c.32.55-.08,1.24-.71,1.24h-6.13c-.7,0-1.26.56-1.26,1.26v8.37c0,.7.56,1.26,1.26,1.26h4.91c.63,0,1.03.69.71,1.24l-2.76,4.78c-.35.6-.14,1.37.46,1.72l7.25,4.19c.6.35,1.37.14,1.72-.46l3.37-5.83c.32-.55,1.11-.55,1.43,0l3.37,5.83c.35.6,1.12.81,1.72.46l7.25-4.19c.6-.35.81-1.12.46-1.72l-2.76-4.78c-.32-.55.08-1.24.71-1.24h4.91c.7,0,1.26-.56,1.26-1.26v-8.37c0-.7-.56-1.26-1.26-1.26Z"/>
</svg>